<svg width="16" height="16" viewBox="0 0 16 16" fill="none" xmlns="http://www.w3.org/2000/svg">
  <path d="M13.656 4.656C13.148 5.164 12.492 5.5 11.792 5.688C12.516 5.172 13.052 4.356 13.364 3.36C12.772 3.852 12.108 4.188 11.392 4.344C10.852 3.748 10.088 3.4 9.248 3.4C7.252 3.4 5.668 5.02 5.668 6.952C5.668 7.268 5.708 7.572 5.784 7.86C3.932 7.688 2.36 6.552 1.44 5.064C1.176 5.656 1.004 6.344 1.004 7.064C1.004 8.292 1.7 9.416 2.72 10.064C2.2 10.048 1.716 9.92 1.276 9.704C1.276 9.724 1.276 9.752 1.276 9.776C1.276 11.016 2.18 12.088 3.372 12.352C2.872 12.488 2.356 12.556 1.828 12.556C1.608 12.556 1.392 12.54 1.176 12.504C2.376 13.58 3.98 14.2 5.692 14.2C9.244 14.2 11.988 11.456 11.988 8.22C11.988 7.988 11.976 7.76 11.952 7.532C12.828 6.964 13.516 6.16 14 5.2C13.468 5.452 12.92 5.6 12.352 5.6C11.912 5.6 11.492 5.504 11.104 5.332C11.656 4.988 12.18 4.54 12.612 4.004Z" fill="white"/>
</svg>